<svg xmlns="http://www.w3.org/2000/svg" xmlns:xlink="http://www.w3.org/1999/xlink" width="200" zoomAndPan="magnify" viewBox="0 0 150 149.999998" height="200" preserveAspectRatio="xMidYMid meet" version="1.0"><defs><clipPath id="412c084ced"><path d="M 3 3.375 L 150 3.375 L 150 146.625 L 3 146.625 Z M 3 3.375 " clip-rule="nonzero"/></clipPath></defs><g clip-path="url(#412c084ced)"><path fill="#d9d9d9" d="M 149.351562 53.445312 L 143.078125 60.265625 L 138.097656 65.722656 L 119.132812 86.1875 C 118.445312 86.90625 117.605469 87.269531 116.609375 87.277344 L 116.269531 87.277344 C 115.726562 87.214844 115.226562 87.03125 114.773438 86.730469 C 114.316406 86.429688 113.949219 86.046875 113.675781 85.574219 L 103.921875 69.132812 C 103.691406 68.742188 103.546875 68.324219 103.480469 67.875 C 103.417969 67.429688 103.4375 66.984375 103.546875 66.546875 C 103.65625 66.105469 103.84375 65.703125 104.109375 65.335938 C 104.371094 64.96875 104.699219 64.667969 105.082031 64.425781 C 105.476562 64.203125 105.898438 64.058594 106.347656 64 C 106.800781 63.9375 107.246094 63.964844 107.683594 64.082031 C 108.125 64.195312 108.527344 64.390625 108.890625 64.660156 C 109.253906 64.933594 109.554688 65.265625 109.789062 65.65625 L 117.222656 78.410156 L 134.34375 59.71875 L 138.984375 54.671875 L 144.304688 48.875 C 144.613281 48.539062 144.972656 48.277344 145.382812 48.085938 C 145.796875 47.894531 146.230469 47.789062 146.683594 47.769531 C 147.136719 47.75 147.578125 47.816406 148.003906 47.972656 C 148.433594 48.128906 148.8125 48.363281 149.148438 48.667969 C 149.484375 48.976562 149.746094 49.335938 149.9375 49.75 C 150.128906 50.160156 150.234375 50.59375 150.253906 51.046875 C 150.273438 51.503906 150.203125 51.941406 150.046875 52.371094 C 149.890625 52.796875 149.660156 53.179688 149.351562 53.511719 Z M 146.417969 70.429688 C 146.453125 70.203125 146.453125 69.976562 146.417969 69.746094 C 146.339844 69.363281 146.199219 69 145.996094 68.664062 C 145.792969 68.328125 145.539062 68.035156 145.234375 67.789062 C 144.929688 67.539062 144.59375 67.347656 144.222656 67.214844 C 143.851562 67.085938 143.46875 67.019531 143.078125 67.019531 C 142.144531 66.996094 141.347656 67.316406 140.6875 67.972656 L 140.210938 68.519531 C 139.839844 69.101562 139.660156 69.738281 139.667969 70.429688 C 139.632812 70.65625 139.632812 70.882812 139.667969 71.113281 C 139.921875 72.394531 140.035156 73.691406 140.007812 75 C 140.007812 76.121094 139.929688 77.238281 139.769531 78.347656 C 139.613281 79.457031 139.378906 80.550781 139.0625 81.625 C 138.75 82.703125 138.363281 83.753906 137.902344 84.773438 C 137.441406 85.796875 136.910156 86.78125 136.308594 87.726562 C 135.707031 88.671875 135.042969 89.574219 134.316406 90.425781 C 133.585938 91.277344 132.800781 92.074219 131.960938 92.816406 C 131.117188 93.554688 130.230469 94.234375 129.292969 94.847656 C 128.355469 95.464844 127.378906 96.011719 126.363281 96.488281 C 124.226562 97.671875 121.953125 98.46875 119.542969 98.875 C 118.40625 98.980469 117.269531 98.980469 116.132812 98.875 C 115.351562 98.875 114.570312 98.835938 113.792969 98.761719 C 113.015625 98.683594 112.242188 98.570312 111.472656 98.417969 C 110.707031 98.265625 109.949219 98.074219 109.203125 97.847656 C 108.453125 97.621094 107.71875 97.355469 106.996094 97.058594 C 106.273438 96.757812 105.566406 96.425781 104.878906 96.054688 C 104.1875 95.6875 103.519531 95.285156 102.867188 94.851562 C 102.21875 94.417969 101.589844 93.953125 100.984375 93.457031 C 100.382812 92.960938 99.804688 92.433594 99.25 91.882812 C 98.695312 91.328125 98.171875 90.75 97.675781 90.144531 C 97.179688 89.542969 96.714844 88.914062 96.28125 88.265625 C 95.847656 87.613281 95.445312 86.945312 95.078125 86.253906 C 94.707031 85.566406 94.375 84.859375 94.074219 84.136719 C 93.773438 83.414062 93.511719 82.679688 93.285156 81.929688 C 93.058594 81.183594 92.867188 80.425781 92.714844 79.65625 C 92.5625 78.890625 92.449219 78.117188 92.371094 77.339844 C 92.296875 76.5625 92.257812 75.78125 92.257812 75 C 92.257812 74.21875 92.296875 73.4375 92.371094 72.660156 C 92.449219 71.882812 92.5625 71.109375 92.714844 70.34375 C 92.867188 69.574219 93.058594 68.816406 93.285156 68.070312 C 93.511719 67.320312 93.773438 66.585938 94.074219 65.863281 C 94.375 65.140625 94.707031 64.433594 95.078125 63.746094 C 95.445312 63.054688 95.847656 62.386719 96.28125 61.734375 C 96.714844 61.085938 97.179688 60.457031 97.675781 59.855469 C 98.171875 59.25 98.695312 58.671875 99.25 58.117188 C 99.804688 57.566406 100.382812 57.039062 100.984375 56.542969 C 101.589844 56.046875 102.21875 55.582031 102.867188 55.148438 C 103.519531 54.714844 104.1875 54.3125 104.878906 53.945312 C 105.566406 53.574219 106.273438 53.242188 106.996094 52.941406 C 107.71875 52.644531 108.453125 52.378906 109.203125 52.152344 C 109.949219 51.925781 110.707031 51.734375 111.472656 51.582031 C 112.242188 51.429688 113.015625 51.316406 113.792969 51.238281 C 114.570312 51.164062 115.351562 51.125 116.132812 51.125 C 117.269531 51.019531 118.40625 51.019531 119.542969 51.125 C 121.933594 51.445312 124.210938 52.152344 126.363281 53.238281 C 127.5 53.773438 128.59375 54.386719 129.636719 55.082031 C 130.207031 55.496094 130.84375 55.699219 131.546875 55.695312 C 132.503906 55.679688 133.320312 55.335938 134.003906 54.671875 L 134.414062 54.195312 C 134.773438 53.609375 134.957031 52.972656 134.960938 52.285156 C 134.882812 51.738281 134.6875 51.238281 134.375 50.78125 C 134.0625 50.324219 133.667969 49.964844 133.1875 49.691406 C 131.066406 48.195312 128.792969 46.988281 126.363281 46.078125 C 124.164062 45.203125 121.890625 44.609375 119.542969 44.304688 C 118.40625 44.234375 117.269531 44.234375 116.132812 44.304688 C 115.125 44.304688 114.125 44.351562 113.125 44.453125 C 112.121094 44.550781 111.128906 44.695312 110.144531 44.894531 C 109.15625 45.089844 108.183594 45.332031 107.222656 45.625 C 106.257812 45.917969 105.3125 46.253906 104.386719 46.640625 C 103.457031 47.023438 102.546875 47.453125 101.660156 47.929688 C 100.773438 48.402344 99.914062 48.917969 99.078125 49.476562 C 98.242188 50.035156 97.4375 50.632812 96.660156 51.269531 C 95.882812 51.910156 95.136719 52.582031 94.425781 53.292969 C 93.714844 54.003906 93.042969 54.75 92.402344 55.527344 C 91.765625 56.304688 91.167969 57.109375 90.609375 57.945312 C 90.050781 58.78125 89.535156 59.644531 89.058594 60.53125 C 88.585938 61.417969 88.15625 62.324219 87.773438 63.253906 C 87.386719 64.183594 87.050781 65.128906 86.757812 66.089844 C 86.464844 67.050781 86.222656 68.027344 86.027344 69.011719 C 85.828125 69.996094 85.683594 70.992188 85.582031 71.992188 C 85.484375 72.992188 85.4375 73.996094 85.4375 75 C 85.4375 76.003906 85.484375 77.007812 85.582031 78.007812 C 85.683594 79.007812 85.828125 80.003906 86.027344 80.988281 C 86.222656 81.972656 86.464844 82.949219 86.757812 83.910156 C 87.050781 84.871094 87.386719 85.816406 87.773438 86.746094 C 88.15625 87.675781 88.585938 88.582031 89.058594 89.46875 C 89.535156 90.355469 90.050781 91.21875 90.609375 92.054688 C 91.167969 92.890625 91.765625 93.695312 92.402344 94.472656 C 93.042969 95.25 93.714844 95.996094 94.425781 96.707031 C 95.136719 97.417969 95.882812 98.089844 96.660156 98.730469 C 97.4375 99.367188 98.242188 99.964844 99.078125 100.523438 C 99.914062 101.082031 100.773438 101.597656 101.660156 102.070312 C 102.546875 102.546875 103.457031 102.976562 104.386719 103.359375 C 105.3125 103.746094 106.257812 104.082031 107.222656 104.375 C 108.183594 104.667969 109.15625 104.910156 110.144531 105.105469 C 111.128906 105.300781 112.121094 105.449219 113.125 105.546875 C 114.125 105.648438 115.125 105.695312 116.132812 105.695312 C 117.269531 105.765625 118.40625 105.765625 119.542969 105.695312 C 121.882812 105.457031 124.15625 104.933594 126.363281 104.128906 C 127.847656 103.601562 129.285156 102.960938 130.671875 102.214844 C 132.058594 101.464844 133.382812 100.613281 134.636719 99.664062 C 135.894531 98.710938 137.070312 97.667969 138.167969 96.535156 C 139.265625 95.402344 140.265625 94.195312 141.179688 92.90625 C 142.089844 91.621094 142.894531 90.273438 143.597656 88.863281 C 144.300781 87.449219 144.894531 85.996094 145.371094 84.492188 C 145.851562 82.992188 146.214844 81.460938 146.457031 79.90625 C 146.703125 78.347656 146.824219 76.78125 146.828125 75.203125 C 146.84375 73.601562 146.707031 72.007812 146.417969 70.429688 Z M 119.542969 129.570312 C 119.542969 130.242188 119.476562 130.910156 119.347656 131.566406 C 119.214844 132.226562 119.019531 132.867188 118.765625 133.488281 C 118.507812 134.109375 118.191406 134.699219 117.820312 135.257812 C 117.445312 135.816406 117.019531 136.332031 116.546875 136.804688 C 116.070312 137.28125 115.554688 137.707031 114.996094 138.078125 C 114.4375 138.453125 113.847656 138.765625 113.226562 139.023438 C 112.605469 139.28125 111.964844 139.476562 111.308594 139.605469 C 110.648438 139.738281 109.984375 139.804688 109.3125 139.804688 L 20.632812 139.804688 C 19.960938 139.804688 19.292969 139.738281 18.636719 139.605469 C 17.976562 139.476562 17.335938 139.28125 16.714844 139.023438 C 16.097656 138.765625 15.507812 138.453125 14.949219 138.078125 C 14.390625 137.707031 13.871094 137.28125 13.398438 136.804688 C 12.921875 136.332031 12.496094 135.816406 12.125 135.257812 C 11.75 134.699219 11.4375 134.109375 11.179688 133.488281 C 10.921875 132.867188 10.726562 132.226562 10.597656 131.566406 C 10.464844 130.910156 10.398438 130.242188 10.398438 129.570312 L 10.398438 20.429688 C 10.398438 19.757812 10.464844 19.089844 10.597656 18.433594 C 10.726562 17.773438 10.921875 17.132812 11.179688 16.511719 C 11.4375 15.890625 11.75 15.300781 12.125 14.742188 C 12.496094 14.183594 12.921875 13.667969 13.398438 13.191406 C 13.871094 12.71875 14.390625 12.292969 14.949219 11.921875 C 15.507812 11.546875 16.097656 11.230469 16.714844 10.976562 C 17.335938 10.71875 17.976562 10.523438 18.636719 10.394531 C 19.292969 10.261719 19.960938 10.195312 20.632812 10.195312 L 109.3125 10.195312 C 109.984375 10.195312 110.648438 10.261719 111.308594 10.394531 C 111.964844 10.523438 112.605469 10.71875 113.226562 10.976562 C 113.847656 11.230469 114.4375 11.546875 114.996094 11.921875 C 115.554688 12.292969 116.070312 12.71875 116.546875 13.191406 C 117.019531 13.667969 117.445312 14.183594 117.820312 14.742188 C 118.191406 15.300781 118.507812 15.890625 118.765625 16.511719 C 119.019531 17.132812 119.214844 17.773438 119.347656 18.433594 C 119.476562 19.089844 119.542969 19.757812 119.542969 20.429688 L 119.542969 37.480469 C 121.859375 37.648438 124.132812 38.054688 126.363281 38.710938 L 126.363281 20.429688 C 126.363281 19.871094 126.335938 19.3125 126.28125 18.757812 C 126.226562 18.203125 126.144531 17.648438 126.035156 17.101562 C 125.925781 16.554688 125.792969 16.011719 125.628906 15.476562 C 125.46875 14.945312 125.28125 14.417969 125.066406 13.902344 C 124.851562 13.386719 124.613281 12.882812 124.351562 12.390625 C 124.085938 11.898438 123.800781 11.417969 123.488281 10.953125 C 123.179688 10.488281 122.847656 10.042969 122.492188 9.609375 C 122.140625 9.179688 121.765625 8.765625 121.371094 8.371094 C 120.972656 7.976562 120.5625 7.601562 120.128906 7.246094 C 119.699219 6.890625 119.25 6.558594 118.785156 6.25 C 118.320312 5.9375 117.84375 5.652344 117.351562 5.386719 C 116.855469 5.125 116.351562 4.886719 115.835938 4.671875 C 115.320312 4.460938 114.796875 4.269531 114.261719 4.109375 C 113.726562 3.945312 113.183594 3.8125 112.636719 3.703125 C 112.089844 3.59375 111.539062 3.511719 110.980469 3.457031 C 110.425781 3.402344 109.871094 3.375 109.3125 3.375 L 20.632812 3.375 C 20.074219 3.375 19.515625 3.402344 18.960938 3.457031 C 18.40625 3.511719 17.851562 3.59375 17.304688 3.703125 C 16.757812 3.8125 16.214844 3.945312 15.683594 4.109375 C 15.148438 4.269531 14.621094 4.460938 14.105469 4.671875 C 13.589844 4.886719 13.085938 5.125 12.59375 5.386719 C 12.101562 5.652344 11.621094 5.9375 11.15625 6.25 C 10.691406 6.558594 10.246094 6.890625 9.8125 7.246094 C 9.382812 7.601562 8.96875 7.976562 8.574219 8.371094 C 8.179688 8.765625 7.804688 9.179688 7.449219 9.609375 C 7.09375 10.042969 6.761719 10.488281 6.453125 10.953125 C 6.140625 11.417969 5.855469 11.898438 5.59375 12.390625 C 5.328125 12.882812 5.089844 13.386719 4.875 13.902344 C 4.664062 14.417969 4.476562 14.945312 4.3125 15.476562 C 4.152344 16.011719 4.015625 16.554688 3.90625 17.101562 C 3.796875 17.648438 3.714844 18.203125 3.660156 18.757812 C 3.605469 19.3125 3.578125 19.871094 3.578125 20.429688 L 3.578125 129.570312 C 3.578125 130.128906 3.605469 130.6875 3.660156 131.242188 C 3.714844 131.796875 3.796875 132.351562 3.90625 132.898438 C 4.015625 133.445312 4.152344 133.988281 4.3125 134.523438 C 4.476562 135.054688 4.664062 135.582031 4.875 136.097656 C 5.089844 136.613281 5.328125 137.117188 5.59375 137.609375 C 5.855469 138.101562 6.140625 138.582031 6.453125 139.046875 C 6.761719 139.511719 7.09375 139.957031 7.449219 140.390625 C 7.804688 140.820312 8.179688 141.234375 8.574219 141.628906 C 8.96875 142.023438 9.382812 142.398438 9.8125 142.753906 C 10.246094 143.109375 10.691406 143.441406 11.15625 143.75 C 11.621094 144.0625 12.101562 144.347656 12.59375 144.609375 C 13.085938 144.875 13.589844 145.113281 14.105469 145.328125 C 14.621094 145.539062 15.148438 145.730469 15.683594 145.890625 C 16.214844 146.054688 16.757812 146.1875 17.304688 146.296875 C 17.851562 146.40625 18.40625 146.488281 18.960938 146.542969 C 19.515625 146.597656 20.074219 146.625 20.632812 146.625 L 109.3125 146.625 C 109.871094 146.625 110.425781 146.597656 110.980469 146.542969 C 111.539062 146.488281 112.089844 146.40625 112.636719 146.296875 C 113.183594 146.1875 113.726562 146.054688 114.261719 145.890625 C 114.796875 145.730469 115.320312 145.539062 115.835938 145.328125 C 116.351562 145.113281 116.855469 144.875 117.351562 144.609375 C 117.84375 144.347656 118.320312 144.0625 118.785156 143.75 C 119.25 143.441406 119.699219 143.109375 120.128906 142.753906 C 120.5625 142.398438 120.972656 142.023438 121.371094 141.628906 C 121.765625 141.234375 122.140625 140.820312 122.492188 140.390625 C 122.847656 139.957031 123.179688 139.511719 123.488281 139.046875 C 123.800781 138.582031 124.085938 138.101562 124.351562 137.609375 C 124.613281 137.117188 124.851562 136.613281 125.066406 136.097656 C 125.28125 135.582031 125.46875 135.054688 125.628906 134.523438 C 125.792969 133.988281 125.925781 133.445312 126.035156 132.898438 C 126.144531 132.351562 126.226562 131.796875 126.28125 131.242188 C 126.335938 130.6875 126.363281 130.128906 126.363281 129.570312 L 126.363281 111.085938 C 124.140625 111.808594 121.867188 112.285156 119.542969 112.519531 Z M 99.078125 34.070312 C 99.078125 33.617188 98.992188 33.183594 98.820312 32.765625 C 98.644531 32.347656 98.398438 31.980469 98.078125 31.660156 C 97.761719 31.339844 97.390625 31.09375 96.972656 30.921875 C 96.554688 30.746094 96.121094 30.660156 95.667969 30.660156 L 34.273438 30.660156 C 33.824219 30.660156 33.386719 30.746094 32.96875 30.921875 C 32.550781 31.09375 32.183594 31.339844 31.863281 31.660156 C 31.542969 31.980469 31.296875 32.347656 31.125 32.765625 C 30.949219 33.183594 30.863281 33.617188 30.863281 34.070312 C 30.863281 34.523438 30.949219 34.957031 31.125 35.375 C 31.296875 35.792969 31.542969 36.164062 31.863281 36.484375 C 32.183594 36.804688 32.550781 37.050781 32.96875 37.222656 C 33.386719 37.394531 33.824219 37.480469 34.273438 37.480469 L 95.667969 37.480469 C 96.121094 37.480469 96.554688 37.394531 96.972656 37.222656 C 97.390625 37.050781 97.761719 36.804688 98.078125 36.484375 C 98.398438 36.164062 98.644531 35.792969 98.820312 35.375 C 98.992188 34.957031 99.078125 34.523438 99.078125 34.070312 Z M 34.273438 64.769531 L 61.5625 64.769531 C 62.011719 64.769531 62.449219 64.679688 62.867188 64.507812 C 63.285156 64.335938 63.652344 64.089844 63.972656 63.769531 C 64.292969 63.449219 64.539062 63.082031 64.710938 62.664062 C 64.886719 62.246094 64.972656 61.808594 64.972656 61.355469 C 64.972656 60.90625 64.886719 60.46875 64.710938 60.050781 C 64.539062 59.632812 64.292969 59.265625 63.972656 58.945312 C 63.652344 58.625 63.285156 58.378906 62.867188 58.207031 C 62.449219 58.03125 62.011719 57.945312 61.5625 57.945312 L 34.273438 57.945312 C 33.824219 57.945312 33.386719 58.03125 32.96875 58.207031 C 32.550781 58.378906 32.183594 58.625 31.863281 58.945312 C 31.542969 59.265625 31.296875 59.632812 31.125 60.050781 C 30.949219 60.46875 30.863281 60.90625 30.863281 61.355469 C 30.863281 61.808594 30.949219 62.246094 31.125 62.664062 C 31.296875 63.082031 31.542969 63.449219 31.863281 63.769531 C 32.183594 64.089844 32.550781 64.335938 32.96875 64.507812 C 33.386719 64.679688 33.824219 64.769531 34.273438 64.769531 Z M 68.382812 85.230469 L 34.273438 85.230469 C 33.824219 85.230469 33.386719 85.320312 32.96875 85.492188 C 32.550781 85.664062 32.183594 85.910156 31.863281 86.230469 C 31.542969 86.550781 31.296875 86.917969 31.125 87.335938 C 30.949219 87.753906 30.863281 88.191406 30.863281 88.644531 C 30.863281 89.09375 30.949219 89.53125 31.125 89.949219 C 31.296875 90.367188 31.542969 90.734375 31.863281 91.054688 C 32.183594 91.375 32.550781 91.621094 32.96875 91.792969 C 33.386719 91.96875 33.824219 92.054688 34.273438 92.054688 L 68.382812 92.054688 C 68.835938 92.054688 69.269531 91.96875 69.6875 91.792969 C 70.105469 91.621094 70.472656 91.375 70.792969 91.054688 C 71.113281 90.734375 71.359375 90.367188 71.535156 89.949219 C 71.707031 89.53125 71.792969 89.09375 71.792969 88.644531 C 71.792969 88.191406 71.707031 87.753906 71.535156 87.335938 C 71.359375 86.917969 71.113281 86.550781 70.792969 86.230469 C 70.472656 85.910156 70.105469 85.664062 69.6875 85.492188 C 69.269531 85.320312 68.835938 85.230469 68.382812 85.230469 Z M 30.863281 115.929688 C 30.863281 116.378906 30.949219 116.816406 31.125 117.234375 C 31.296875 117.652344 31.542969 118.019531 31.863281 118.339844 C 32.183594 118.660156 32.550781 118.90625 32.96875 119.078125 C 33.386719 119.253906 33.824219 119.339844 34.273438 119.339844 L 95.667969 119.339844 C 96.121094 119.339844 96.554688 119.253906 96.972656 119.078125 C 97.390625 118.90625 97.761719 118.660156 98.078125 118.339844 C 98.398438 118.019531 98.644531 117.652344 98.820312 117.234375 C 98.992188 116.816406 99.078125 116.378906 99.078125 115.929688 C 99.078125 115.476562 98.992188 115.042969 98.820312 114.625 C 98.644531 114.207031 98.398438 113.835938 98.078125 113.515625 C 97.761719 113.195312 97.390625 112.949219 96.972656 112.777344 C 96.554688 112.605469 96.121094 112.519531 95.667969 112.519531 L 34.273438 112.519531 C 33.824219 112.519531 33.386719 112.605469 32.96875 112.777344 C 32.550781 112.949219 32.183594 113.195312 31.863281 113.515625 C 31.542969 113.835938 31.296875 114.207031 31.125 114.625 C 30.949219 115.042969 30.863281 115.476562 30.863281 115.929688 Z M 30.863281 115.929688 " fill-opacity="1" fill-rule="nonzero"/></g></svg>